<svg xmlns="http://www.w3.org/2000/svg" width="377.15" height="576.17" viewBox="0 0 377.15 576.17">
    <g class="tama">
        <g class="tamasan">
            <g class="body">
                <path d="M166.73,506.69c-11.87-1.65-19.88,21.54-17.4,38.1s5.25,25.68,10.77,26.51,9.67-19.61,11.6-32.86S178.6,508.35,166.73,506.69Z" fill="#fff7f1"/>
                <path d="M160.43,575.83a6,6,0,0,1-1-.08c-8.57-1.29-11.82-12.08-14.56-30.29-2.07-13.81,2.35-30.72,10.05-38.51,4.64-4.68,9.32-5.15,12.42-4.72a12.29,12.29,0,0,1,8.61,4.9c4.57,6.26,2.83,16.36,1.15,26.13-.36,2-.69,4-1,5.83-4.37,30-9.7,34-11.45,35.26A7.09,7.09,0,0,1,160.43,575.83Zm5.08-64.73c-.84,0-2.31.3-4.18,2.19-5.73,5.78-9.18,19.91-7.55,30.83.92,6.1,3.24,19.64,6.16,22.29,1.8-2.7,4.83-11.63,7.31-28.62.28-2,.64-4,1-6.06,1.23-7.18,2.78-16.11.46-19.29a3.44,3.44,0,0,0-2.59-1.29h0A4,4,0,0,0,165.51,511.1Z" fill="#71695d"/>
                <path d="M139.3,507c-11.87-1.66-19.88,21.53-17.39,38.1s5.24,25.68,10.76,26.5,9.67-19.6,11.6-32.85S151.17,508.7,139.3,507Z" fill="#fff7f1"/>
                <path d="M133,576.17a6.18,6.18,0,0,1-1-.08c-8.56-1.27-11.81-12.07-14.54-30.28-2.08-13.81,2.34-30.73,10.05-38.51,4.63-4.69,9.3-5.15,12.41-4.72h0a12.33,12.33,0,0,1,8.62,4.9c4.56,6.26,2.82,16.36,1.14,26.13-.35,2-.68,4-1,5.83-4.37,30-9.7,33.95-11.45,35.25A7,7,0,0,1,133,576.17Zm5.07-64.72c-.85,0-2.31.3-4.18,2.18-5.73,5.78-9.18,19.91-7.54,30.84.91,6.1,3.23,19.65,6.15,22.28,1.8-2.69,4.83-11.62,7.31-28.61.29-2,.64-4.06,1-6.06,1.24-7.18,2.78-16.11.46-19.29a3.44,3.44,0,0,0-2.59-1.29h0A3.69,3.69,0,0,0,138.08,511.45Z" fill="#71695d"/>
                <path d="M209.41,256C237.2,313.7,272,426.42,270.69,452.9s-15.58,49.29-32.32,59.43-76.62,29.55-125.55,19.28S19.08,493.41,9.26,475.05,5.41,429.3,19.63,409.22,101,297.13,113.27,252.86c3.39-16.05,21.53-30.75,28.83-21.06s-5.61,35.56,12.75,39.61C173.5,275.52,191.59,273,209.41,256Z" fill="#ffe789"/>
                <path d="M142.92,539a151.85,151.85,0,0,1-31-3c-50.63-10.64-96-39-106.61-58.85C-4.66,458.55-.28,429.54,16,406.62l3.86-5.42c19.27-27,77.86-109,89.09-149.42,2.7-12.5,13.54-24.94,23.74-27.21,5.25-1.16,10,.48,13.05,4.52,3.83,5.08,3.55,12.38,3.28,19.43-.45,11.71.06,17,6.85,18.49,19.93,4.4,35.5,0,50.49-14.24a4.51,4.51,0,0,1,7.16,1.31c27.87,57.86,63.06,171.32,61.72,199-1.26,26-15.12,51.33-34.49,63.06C227.13,524.38,185.18,539,142.92,539Zm-7-305.83a6.13,6.13,0,0,0-1.32.16c-6.11,1.36-14.83,10.58-16.92,20.43a2.44,2.44,0,0,1-.06.26C106,295.91,46.65,379.1,27.14,406.43l-3.84,5.39C9,432.07,4.82,457.2,13.23,472.93s50.62,43.8,100.52,54.28c47.64,10,106.78-9.35,122.29-18.73,14.08-8.53,28.86-29.09,30.16-55.8,1.12-23.29-30-128.16-58.3-189.3-15.89,13.06-33.2,17-54,12.42-14.84-3.27-14.3-17.35-13.91-27.62.21-5.49.43-11.15-1.47-13.67A3,3,0,0,0,135.91,233.2Z" fill="#71695d"/>
                <path d="M29.91,418c-6.32.24-12.83,3.1-19.21,7.24-7.27,17.07-8.83,36-1.44,49.8,9.82,18.36,54.64,46.29,103.57,56.56s108.8-9.16,125.55-19.29,31-32.93,32.31-59.43c.3-6.22-1.52-17.49-4.64-31.4-16.57-7.63-27,1.78-32.12,27.66-6.11,30.73-40.6,47.74-58.69,29.3s-39.42-25.69-58.6-9.08-36.86,39.89-55.63-18C52.79,426.07,41.7,417.57,29.91,418Z" fill="#ffd06a"/>
                <path d="M142.92,539a151.85,151.85,0,0,1-31-3c-50.63-10.64-96-39-106.61-58.85C-4.66,458.55-.28,429.54,16,406.62l3.86-5.42c19.27-27,77.86-109,89.09-149.42,2.7-12.5,13.54-24.94,23.74-27.21,5.25-1.16,10,.48,13.05,4.52,3.83,5.08,3.55,12.38,3.28,19.43-.45,11.71.06,17,6.85,18.49,19.93,4.4,35.5,0,50.49-14.24a4.51,4.51,0,0,1,7.16,1.31c27.87,57.86,63.06,171.32,61.72,199-1.26,26-15.12,51.33-34.49,63.06C227.13,524.38,185.18,539,142.92,539Zm-7-305.83a6.13,6.13,0,0,0-1.32.16c-6.11,1.36-14.83,10.58-16.92,20.43a2.44,2.44,0,0,1-.06.26C106,295.91,46.65,379.1,27.14,406.43l-3.84,5.39C9,432.07,4.82,457.2,13.23,472.93s50.62,43.8,100.52,54.28c47.64,10,106.78-9.35,122.29-18.73,14.08-8.53,28.86-29.09,30.16-55.8,1.12-23.29-30-128.16-58.3-189.3-15.89,13.06-33.2,17-54,12.42-14.84-3.27-14.3-17.35-13.91-27.62.21-5.49.43-11.15-1.47-13.67A3,3,0,0,0,135.91,233.2Z" fill="#71695d"/>
                <path d="M164,220.53c-13.12-.57-31.93.29-41.63,34.5s-1.14,69,37.07,67.85,66.14-26.8,54.73-53.6S177.06,221.1,164,220.53Z" fill="#fff7f1"/>
                <path d="M157.62,327.41c-14.54,0-26.17-5.1-33.73-14.8-10.52-13.48-12.66-34.92-5.89-58.81,9.8-34.62,28.83-38.51,46.14-37.76,15.18.66,42.13,23.29,54.12,51.48a34.64,34.64,0,0,1-2.88,33.09c-10.1,15.78-31.5,26-55.86,26.77Zm1.89-102.5c-10.46,0-24.82,3-32.86,31.34-5.89,20.8-4.27,39.8,4.33,50.83,6.14,7.88,15.65,11.68,28.27,11.3,21.1-.63,40.16-9.51,48.55-22.62A25.56,25.56,0,0,0,210,271a98,98,0,0,0-23.36-32.66c-8.51-7.88-17.49-13.12-22.87-13.35h0C162.44,225,161,224.91,159.51,224.91Z" fill="#71695d"/>
            </g>
            <g class="arm">
                <path d="M275.59,286.14c-13.64,1-34.74,8.88-62,17.55s-55.83,22.42-51,13.06,4.6-20.48,7.2-31.35c9.57,5.65,31.39,1.71,40.43-.47s27.86-30.68,35.9-58.59c5.36,8,34,30.25,46.8,39.89S275.59,286.14,275.59,286.14Z" fill="#7fadc6"/>
                <path d="M164.16,324.39a6.44,6.44,0,0,1-5.24-2.1c-1-1.15-2.41-3.65-.4-7.59,2.78-5.42,3.72-11.79,4.72-18.53.57-3.84,1.16-7.82,2.11-11.82a4.5,4.5,0,0,1,6.67-2.83c6.6,3.9,23.85,2.24,37.08-1,6-1.45,24.28-26.45,32.63-55.46a4.5,4.5,0,0,1,8.07-1.26c4,6.06,25.9,23.85,45.76,38.8,4.78,3.59,5.28,7.49,4.86,10.12-1.51,9.49-18.27,15.9-23.37,17.64a4.74,4.74,0,0,1-1.12.23c-10.16.76-25.17,5.68-44.18,11.9-5.37,1.76-10.91,3.57-16.82,5.45-8.05,2.56-16.35,5.61-23.68,8.31C176.85,321.6,168.94,324.39,164.16,324.39Zm8.92-32.86c-.35,2-.65,4-.94,6-.84,5.72-1.71,11.59-3.79,17.16,5-1.35,13-4.3,19.79-6.8,7.42-2.73,15.82-5.83,24.07-8.45,5.86-1.86,11.39-3.67,16.74-5.42,19.24-6.3,34.52-11.3,45.71-12.28,11.22-3.93,16.91-9,16.88-10.39,0-.1-.3-.66-1.39-1.48-7.9-5.95-30.76-23.39-42.2-34.63-9.12,25.95-26.16,51.54-36.73,54.1C205,290.82,185.83,294.87,173.08,291.53Z" fill="#71695d"/>
                <path d="M217.42,393.53c-.16,5.24-19.36,23.67-24.29,20.6s-12.25-13.76-11.9-18.41S217.58,388.29,217.42,393.53Z" fill="#7fadc6"/>
                <path d="M194.49,419a7,7,0,0,1-3.74-1c-5.66-3.52-14.54-15.53-14-22.58.39-5.11,6.88-6.86,13.83-8a95.92,95.92,0,0,1,18.8-1.11c3.48.19,12.74.68,12.54,7.38-.21,7-14.15,19.68-21,23.38A14.07,14.07,0,0,1,194.49,419Zm-8.44-21.4c1.19,3.34,5.38,9.75,8.86,12.32,3.78-.91,13.19-9.53,16.73-14.45C205.31,394.65,191.14,395.76,186.05,397.58Z" fill="#71695d"/>
                <path d="M306.62,372.61c-1.59,13.06-3.71,34.09-10.68,34.53S275,393.32,272.65,387.65,308.21,359.53,306.62,372.61Z" fill="#7fadc6"/>
                <path d="M295.68,411.65c-9.81,0-24.55-16-27.18-22.27-1.94-4.66,2.84-9.09,4.41-10.54,6-5.56,25.65-18.22,34.29-13.8,1.38.7,4.52,2.9,3.89,8.11h0l-.27,2.22c-2.1,17.51-4.27,35.61-14.6,36.26ZM277.42,387.1c3.21,5.4,14.07,15.34,18,15.55.44-.42,2-2.34,3.66-9.73,1.28-5.81,2.13-12.91,2.81-18.62l.15-1.19c-2.12.26-6.5,1.59-12.86,5.21S278.79,385.41,277.42,387.1Z" fill="#71695d"/>
                <path d="M372.15,280.27c-5-8.87-61.15-13.52-86.2-12.91-31.32.76-58.69,4.6-98.15,29.44-28.68,18.06-73.43,65.13-72.6,75.39.79,9.81,10.35,14.32,27.14,18.54,31.24,7.84,66.81,9.5,127.73-4C321.91,375.22,356.92,335,363,324.45s-18.87-.5-20.48-5.79S377.17,289.14,372.15,280.27Z" fill="#d9f0f4"/>
                <path d="M227.93,276.78c-12.24,4.35-25.34,10.71-40.14,20-28.68,18.05-73.42,65.12-72.59,75.38,0,.16.08.29.1.45a48,48,0,0,0,3.27,5.92c10.31-5.93,166.78-56.72,166.78-56.72s-9-38.36-5.18-54.5C261.79,267.92,247.25,269.9,227.93,276.78Z" fill="#7fadc6"/>
                <path d="M122.85,384.71l-.83,0a4.5,4.5,0,0,1,.4-9c7.69.34,41.26-6.2,83.53-16.28,40.39-9.63,75.56-19.35,83.62-23.1a4.5,4.5,0,0,1,3.8,8.16C275.11,353,144.91,384.71,122.85,384.71Z" fill="#8aaab8"/>
                <path d="M134.44,389.05a39.66,39.66,0,0,1-7.31-.52,4.5,4.5,0,1,1,1.77-8.82c18.95,3.82,155.44-20.85,169-26a4.5,4.5,0,1,1,3.24,8.4C288.89,366.75,170.41,389.05,134.44,389.05Z" fill="#8aaab8"/>
                <path d="M192.1,401.29a205,205,0,0,1-50.85-6.2c-14.83-3.72-29.4-8.52-30.54-22.54-.65-8.09,14-25.26,26.48-38.24,16.32-17,34.79-32.87,48.21-41.32,42.24-26.59,71.61-29.43,100.44-30.13,13.74-.33,34.35.85,51.28,2.94,34.42,4.24,37.6,9.86,38.95,12.26,4.68,8.28-6.64,18.83-18.63,30-2.56,2.38-5.69,5.31-7.91,7.62,1.08-.09,2.17-.21,3-.3,6.23-.67,12.12-1.3,14.82,2.84,1.05,1.61,1.81,4.39-.53,8.47-7.6,13.21-44.43,53-95.81,64.41C240.3,397.92,215,401.29,192.1,401.29Zm98.62-129.48c-1.63,0-3.19,0-4.66.05-33.87.82-59.18,5.65-95.87,28.75-12.61,7.94-30.18,23-45.85,39.24-17.73,18.4-24.53,29.43-24.65,32.06.51,6.3,7,10.24,23.75,14.45,35.79,9,72.2,7.82,125.66-4.05,49.26-10.91,81.52-47.69,88.85-58.38-1.47.08-3.17.27-4.42.4-6.36.68-13.58,1.46-15.35-4.36-1.49-4.88,3.39-9.43,13.13-18.5,5-4.63,16.49-15.36,16.81-19.08-1.7-1.6-10.44-5.06-33.12-7.78A402.68,402.68,0,0,0,290.72,271.81Zm77.51,10.68h0Z" fill="#71695d"/>
                <path d="M310,373.69c-27.63-16.29-38.56-88.32-34.6-106.44l8.8,1.93c-3.83,17.48,8.44,83.83,30.37,96.76Z" fill="#71695d"/>
                <path d="M115.87,378.35c-2.71,10.08-17.24,32-27.56,34.84s-.7-25.25-5.57-35.64-20.86-29.43-5.25-25.21S118.59,368.28,115.87,378.35Z" fill="#7fadc6"/>
                <path d="M87,417.88a7.27,7.27,0,0,1-4.69-1.63c-4.25-3.49-3.72-10.69-3.05-19.8.45-6.07,1-13.62-.57-17-1.12-2.39-3-5.52-4.88-8.55-5.47-9-9.79-16.06-6.13-20.94,3.09-4.12,9-2.5,11-2a117.78,117.78,0,0,1,27.18,11.28C117.2,366,122,372.8,120.22,379.52c-2.87,10.64-18.16,34.53-30.71,38A9.33,9.33,0,0,1,87,417.88ZM76.06,356.62a104.59,104.59,0,0,0,5.42,9.61,107,107,0,0,1,5.34,9.41c2.58,5.51,2,13.62,1.4,21.47-.27,3.68-.66,9-.25,11.44,8.15-3.31,21.12-22.33,23.56-31.37h0c.33-1.22-1.39-4.92-10.26-10.16a110,110,0,0,0-25-10.34Z" fill="#71695d"/>
                <path d="M286.08,324.27c-12.63,5.63-34.55,31.47-34.89,40.83s29.68-11.1,41-19.39C290.1,336.16,287,329,286.08,324.27Z" fill="#7fadc6"/>
                <path d="M253.42,372A6.61,6.61,0,0,1,246.7,365c.27-7.79,9.81-19.79,13.9-24.58,8.31-9.77,17.15-17.32,23.64-20.21a4.5,4.5,0,0,1,6.26,3.27,66.1,66.1,0,0,0,2.11,7.26c1.24,3.81,2.79,8.56,4,14a4.49,4.49,0,0,1-1.74,4.61C268.61,368.52,258.11,372,253.42,372Zm29.87-40.9a94.14,94.14,0,0,0-15.84,15.08c-6.1,7.16-9.46,12.73-10.9,16.12,5.49-2.05,16.77-8.58,30.6-18.49-1-3.86-2.09-7.27-3.1-10.35C283.79,332.66,283.53,331.88,283.29,331.12Z" fill="#71695d"/>
                <path d="M309.47,299.92a10.64,10.64,0,1,1,13.5,6.63A10.64,10.64,0,0,1,309.47,299.92Z" fill="#fff7f1"/>
                <path d="M319.55,310.12a13.63,13.63,0,1,1,4.39-.73A13.66,13.66,0,0,1,319.55,310.12Zm0-21.27a7.8,7.8,0,0,0-2.47.41,7.63,7.63,0,1,0,9.69,4.76,7.67,7.67,0,0,0-7.22-5.17Z" fill="#71695d"/>
                <path d="M314.36,298.78a8,8,0,1,1,10.1,4.84A7.92,7.92,0,0,1,314.36,298.78Z" fill="#71695d"/>
                <path d="M298.44,333c-1.93-5.64,1.45-11.9,7.54-14s12.58.81,14.51,6.45-1.46,11.9-7.54,14S300.36,338.59,298.44,333Z" fill="#e47b7b"/>
                <path d="M219.27,321.9c10.55,2.84,44.48,16.81,38.78,31.92s-47.61,7.13-55.88-4S208.73,319,219.27,321.9Z" fill="#fff7f1"/>
                <path d="M238.93,366.62c-14.78,0-34-5.57-40.37-14.11-4.91-6.6-4.34-16,1.49-24.57,4.55-6.69,12.62-12.49,20.4-10.39,6.82,1.84,33.71,11.57,40.9,25.61a14.82,14.82,0,0,1,.91,12.25c-1.54,4.07-5.69,9.24-16.76,10.79A47,47,0,0,1,238.93,366.62ZM217.1,326.11c-2.87,0-6.8,2.76-9.61,6.89-2.7,4-4.76,10-1.71,14.14,4.37,5.89,24.57,12.09,38.47,10.15,3-.42,8.3-1.64,9.59-5.05a5.75,5.75,0,0,0-.5-5c-4.56-8.9-25.05-18.28-35.24-21h0A4.09,4.09,0,0,0,217.1,326.11Z" fill="#71695d"/>
                <path d="M135.13,222.87c-17.4,5.28-25.65,26.22-27.65,54.16s-6.56,81.54,18.53,92.09,75.55,12.26,108.9-34.5,20.54-56.55,11.69-61.3c-12.25-6.56-41.11-15.31-64.54-27.68C159.7,233.84,151.1,218,135.13,222.87Z" fill="#ffe789"/>
                <path d="M209.05,257.83c-.26,15.76,8.58,38.43-10.45,33.23-28-7.63-33.47,7.27-29.47,29.45s-29.08,12.35-39.26,5.8c-6.58-4.23-16.18-7.93-23.64-3.59,1.1,20.91,5.69,40.48,19.78,46.4,25.09,10.55,75.55,12.26,108.91-34.5s20.54-56.55,11.68-61.29C238.88,269.2,224.43,264.06,209.05,257.83Z" fill="#ffd06a"/>
                <path d="M159,379.74c-14,0-26.31-2.94-34.71-6.48-27.41-11.52-23.67-63.34-21.44-94.3l.16-2.25c2.33-32.63,13-52.73,30.84-58.15,12.49-3.79,21.25,2.84,31.4,10.52a135,135,0,0,0,18.93,12.58c13.22,7,28,12.71,41.06,17.78,9.68,3.75,18,7,23.51,9.92,2.91,1.56,9.75,5.22,11.77,13.87,2.76,11.8-4.41,29.46-21.92,54C215.09,370.16,184.25,379.73,159,379.74ZM140.92,226.46a15.57,15.57,0,0,0-4.48.71h0c-17.65,5.36-23,30.25-24.47,50.18l-.16,2.26C109.88,306.29,106.3,356,127.75,365c21.28,8.95,70.3,13.57,103.5-33,19.55-27.41,21.93-40.54,20.49-46.73-.92-3.9-3.46-5.95-7.26-8-5-2.67-13.11-5.81-22.51-9.46-12.62-4.9-28.33-11-42-18.21a142.19,142.19,0,0,1-20.16-13.37C151.59,230,146.56,226.46,140.92,226.46Z" fill="#71695d"/>
            </g>
            <g class="head">
                <path d="M162.54,41.59c2-9.52,32.63-39.94,42.14-36.88s15.64,44.53,12.07,53.53-18.86,9.69-31.44,3.91S160.5,51.11,162.54,41.59Z" fill="#978f83"/>
                <path d="M201.53,70.39a44.18,44.18,0,0,1-18.1-4.15l-1.19-.55c-13.19-6-26.83-12.3-24.1-25h0c2-9.4,22.13-29.86,34.78-37.17,5.44-3.15,9.74-4.15,13.14-3,3.23,1,6,4,8.35,9.06,6.33,13.4,10,41.67,6.52,50.41a15.56,15.56,0,0,1-9.09,8.68A27.68,27.68,0,0,1,201.53,70.39ZM166.94,42.53c-1.13,5.29,6.81,9.37,19.05,15l1.2.55c7.44,3.42,16,4.29,21.3,2.17a6.78,6.78,0,0,0,4.08-3.64c1.17-3,1-13.73-1.26-26-2.78-14.87-6.61-21-8-21.63-1.52-.29-8.46,2.51-19.84,13.14-9.37,8.75-15.86,17.4-16.5,20.4Z" fill="#71695d"/>
                <path d="M49.27,168.84c4.1-27.73,14.09-87.2,63-108.67,32.64-14.32,73.11-17.86,99.42,2.36,16.56,12.73,33.65,48.9,37.22,78.34s-6.12,77.64-34.18,92c-31.5,16.06-128.92,4.57-152.09-13.1C47.57,208.22,45.16,196.57,49.27,168.84Z" fill="#978f83"/>
                <path d="M166,244.92c-40.77,0-89.71-9.18-106-21.61-17.8-13.57-19.06-28.59-15.14-55.13h0C48.42,143.81,58,79.08,110.5,56.05c17.79-7.81,36.41-12,53.86-12.16,19.77-.18,37.07,5,50.11,15.07,17.39,13.36,35.22,50.63,38.95,81.37,3.58,29.56-5.58,80.67-36.61,96.5C205.71,242.5,186.92,244.92,166,244.92ZM53.72,169.5c-4,26.94-1.59,36.54,11.69,46.65,10.21,7.79,38.6,15.14,70.63,18.3,33.93,3.34,63.32,1.18,76.68-5.63,8.1-4.14,19.31-14,26.71-37.64,5-16,6.89-34.59,5-49.76C241.06,113.2,224.48,78,209,66.1c-17.39-13.37-51.44-20.86-94.87-1.81-47.94,21-57,82.19-60.4,105.21Z" fill="#71695d"/>
                <path d="M214.06,96.78c18.32,26.54,37.95,99.7,3,131.57-27.79,25.36-126.57,25.21-136.64-23.13S100.59,75.63,146.24,71.6,199.46,75.63,214.06,96.78Z" fill="#fff7f1"/>
                <path d="M156.38,249.58c-14,0-28.09-1.88-40.43-5.87C93.44,236.42,79.64,223.43,76,206.14c-7-33.47,4.45-81.17,26.57-111,12.61-17,27.56-26.68,43.24-28.06,48.12-4.25,56.82,5.24,71.92,27.1h0c8.86,12.85,19.18,38.19,22.24,65.85,4.44,40.13-8.37,61.08-19.89,71.6C207.54,243.14,182.22,249.58,156.38,249.58Zm9.68-174.49c-5.52,0-11.92.33-19.42,1-16.48,1.46-29.11,14.11-36.8,24.47C89.43,128,78.45,173.6,84.85,204.3c3.67,17.62,20.45,26.5,33.87,30.84,32,10.34,78.29,5.42,95.33-10.12,10-9.11,21-27.6,17-64-2.88-26.1-12.48-49.81-20.7-61.73h0C199.29,83.3,193.62,75.09,166.06,75.09Z" fill="#71695d"/>
                <path d="M234.54,135.05c-6.38,14.1-30.54,33.56-29.45,5.32-14.51,19.19-17.09,10-14.55-3.94-13.89,35.93-41.82,75.5-54.5,98.75-16.73,30.67-34.45,44.35-66.61,48.64-18.59,2.48-40.69-7.5-50.62-21.44C10,250.05,5.74,228.05,14.89,206.7c6.73-15.7,29-30.27,47.65-28,0,0,10.28-53.8,32.42-86.67C107,74.1,134.77,53.84,156.45,54.43,180.83,55.1,200.28,56.22,215,75S240.92,121,234.54,135.05Z" fill="#978f83"/>
                <path d="M197,98.26c-.42-.25-1.32.82-2.8,3.4-11.79,20.63-55.12,73.41-79.87,78.13S84.3,181.25,67.2,178.6c25.94,9.72,35.07,39.19,24.76,55.7S72.2,259.94,54.81,256.7c-1.34-.25-2.9-.48-4.32-.73a8.6,8.6,0,0,0-1.87-2.45c-10-10.29-8.72-28,5.92-36.49s41.34,13.36,27.21-10.79c-6.29-10.75-9.79-10.65-25.16-11.3-12.33-.51-17.21,5.14-25.68,13.88s-5.66,23.12,1.53,33.91a43.67,43.67,0,0,0,14,12.56c-14.94-2.43-31.47-4-30.8,1.77a40.88,40.88,0,0,0,3.18,5.32c9.92,13.94,32,23.91,50.63,21.43,32.16-4.29,49.88-18,66.61-48.63,9.44-17.31,27.31-43.66,41.57-70.82C190.42,127.81,198.93,99.36,197,98.26Z" fill="#83796a"/>
                <path d="M64.36,287.93c-19.86,0-40.52-10.74-49.21-22.94C5.14,250.93-4.72,231.2,8,203.08c7.62-16.89,29.57-32.75,55.24-28.86,9,1.37,21.58,8,29.47,19.62,7.23,10.7,9.3,23.78,6,37.84-6.38,27-35.43,33.23-45.4,31-8.55-1.89-20.87-8.22-27.45-19.83a32.23,32.23,0,0,1-2.33-26.75c3.18-9.53,21.1-30.86,44.59-24.7,9.22,2.42,16.85,10.12,21.49,21.69q.92,2.29,1.64,4.68a34.73,34.73,0,0,0-6-18.91c-6.33-9.35-16.54-14.72-23.36-15.76-21.29-3.22-39.43,9.78-45.69,23.66-10.71,23.74-3.3,39.5,6.31,53,8.52,12,32.73,22.49,51.18,18.12,30.55-7.23,40.42-17.34,57.19-40.4,16.21-22.29,42-67.88,55.5-102.68a4.5,4.5,0,0,1,8.62,2.43,36,36,0,0,0-.75,8.53,46.23,46.23,0,0,0,7.28-8.11,4.5,4.5,0,0,1,8.09,2.89c-.28,7.22,1.28,9.51,2.14,9.72,3.92.92,14.64-8.07,18.71-17.07a4.5,4.5,0,1,1,8.2,3.71c-4.71,10.41-18.67,24.55-29,22.12-2.92-.69-6.17-2.71-7.88-7.93-3.85,3.66-7.86,5.8-11.71,4.11a6.91,6.91,0,0,1-2-1.3c-14.46,32.48-35.82,69.39-50,88.87-8.94,12.29-16.32,21.29-25.5,28.17-9.41,7.05-20.79,11.89-36.9,15.7A49.13,49.13,0,0,1,64.36,287.93Zm-4.53-88.58c-14.79,0-26,14.18-27.8,19.61-2.31,6.94-1.77,13.5,1.62,19.47,4.8,8.46,14.29,13.88,21.56,15.49,3.67.81,18.55-.65,27.91-11.08a4.3,4.3,0,0,1,.41-.87c2-3.17,2-14.69-2.32-25.51-2-5.13-6.79-14.07-15.41-16.33A23.27,23.27,0,0,0,59.83,199.35Z" fill="#71695d"/>
                <path d="M137.6,62C139.34,48.67,90.41,24,81.49,33.11s-18.27,88.94-5.41,90c12.58,1,24.72-23.09,33.38-33C117.67,80.65,135.82,75.41,137.6,62Z" fill="#fff4e3"/>
                <path d="M76.91,127.65c-.4,0-.8,0-1.21-.05-2.44-.2-5.79-1.63-7.88-7.27C63.21,108,66.06,80.21,67,72s4.67-35.34,11.24-42c7.8-7.95,27.47.36,35.57,4.31,5,2.44,29.92,15.27,28.21,28.27-1.4,10.61-10.51,16.72-18.54,22.11-4.16,2.79-8.09,5.43-10.67,8.39-2.12,2.44-4.59,6-7.2,9.7C97.46,114.44,88.21,127.65,76.91,127.65Zm10.72-92c-1.53,0-2.53.24-2.92.64-4.18,4.26-11.15,40.2-10.39,66.68.33,11.38,2.07,14.87,2.64,15.71,6.62-.08,15.09-12.18,21.31-21.07,2.76-3.94,5.36-7.65,7.79-10.45,3.36-3.86,8-7,12.44-9.95,7.08-4.75,13.77-9.24,14.63-15.82h0c.35-2.59-7.12-11.16-23.22-19C99.66,37.37,91.74,35.62,87.63,35.62Z" fill="#71695d"/>
                <path d="M186.65,181.06c-5.08-.24-8.56,11-9,15.27-1.26,11.88,16.47,11.73,15.58,0C192.65,188.89,191.79,181.31,186.65,181.06Z" fill="#71695d"/>
                <path d="M85.75,36.14c12.13,4.67,31.5,36.61,27.17,50.51,19.78-13.25,28.17-24.31,22.33-31.44s-22.39-17.85-31.79-21.08C86.74,28.4,73.61,31.47,85.75,36.14Z" fill="#978f83"/>
                <path d="M112.92,91.15a4.5,4.5,0,0,1-4.29-5.84c3.5-11.25-14.22-41-24.5-45-4.27-1.65-9-4.6-7.29-9.32,2.85-7.85,21.23-3.49,28.07-1.14,9.63,3.29,27.12,14.32,33.82,22.48a12.22,12.22,0,0,1,2.69,9.81c-1.19,8.07-9.69,17.3-26,28.22A4.51,4.51,0,0,1,112.92,91.15ZM94.28,36.32c10.4,8.86,21.26,27.37,23.35,41.47,12.44-9.44,14.58-14.87,14.89-16.94a3.27,3.27,0,0,0-.75-2.79C126.62,51.78,111,41.49,102,38.39A57.71,57.71,0,0,0,94.28,36.32Z" fill="#71695d"/>
                <path d="M224,211.68c1.49.5,2.42,1.25.27,4.54s-6.62,9.32-9.13,9.34-4.65.06-3.06-4,8.83-9.36,8.83-9.36" fill="#e47b7b"/>
                <path d="M211.39,229.94c-4.11-5.72-3.32-10.08-1.94-12.73,3.48-6.67,14-8.93,20.28-8.87l-.08,6c-5.72-.11-13.07,2.17-14.88,5.65-.33.62-1.32,2.53,1.5,6.45Z" fill="#71695d"/>
                <path d="M182.6,216.13c-.81.6-.92,1.87-.88,3.38-2.38,0-3.59.38-3.6,2s1.52,1.75,3.75,1.62a16.84,16.84,0,0,1-.27,4.1v.06c-2.59,0-3.87.33-3.87,2,0,1.35,1.25,1.69,3.14,1.66-.48,2.73-.34,4,1.54,3.69,1.68-.24,2.16-1.83,2.33-4l1.49-.19c.94-.13,2-.2,3-.28-.46,2.68-.32,3.91,1.55,3.64,1.66-.25,2.15-1.8,2.33-4,2.68-.28,4.82-.77,4.85-2a1.45,1.45,0,0,0-.25-1c-.63-.81-2.32-.59-4.47-.2,0-.34,0-.65,0-1,0-1.1.09-2.32.17-3.56,2.71-.28,4.9-.74,4.94-2a1.5,1.5,0,0,0-.26-1c-.63-.82-2.35-.6-4.53-.19.05-2.32-.2-4.06-1.51-3.9a2.24,2.24,0,0,0-1.09.41c-.94.7-1,2.22-.87,4.09a19.74,19.74,0,0,1-3.82.26l-1.08,0c.05-2.29-.21-4-1.5-3.86A2.24,2.24,0,0,0,182.6,216.13Zm2.46,6.67,1.57-.2c1.13-.15,2.35-.24,3.6-.33a16.94,16.94,0,0,1-.27,4c-.06.31-.1.51-.16.8a20.75,20.75,0,0,1-3.92.28l-1,0c0-.33,0-.63,0-1C184.88,225.28,185,224.05,185.06,222.8Z" fill="#e47b7b"/>
                <path d="M182.6,216.13c-.81.6-.92,1.87-.88,3.38-2.38,0-3.59.38-3.6,2s1.52,1.75,3.75,1.62a16.84,16.84,0,0,1-.27,4.1v.06c-2.59,0-3.87.33-3.87,2,0,1.35,1.25,1.69,3.14,1.66-.48,2.73-.34,4,1.54,3.69,1.68-.24,2.16-1.83,2.33-4l1.49-.19c.94-.13,2-.2,3-.28-.46,2.68-.32,3.91,1.55,3.64,1.66-.25,2.15-1.8,2.33-4,2.68-.28,4.82-.77,4.85-2a1.45,1.45,0,0,0-.25-1c-.63-.81-2.32-.59-4.47-.2,0-.34,0-.65,0-1,0-1.1.09-2.32.17-3.56,2.71-.28,4.9-.74,4.94-2a1.5,1.5,0,0,0-.26-1c-.63-.82-2.35-.6-4.53-.19.05-2.32-.2-4.06-1.51-3.9a2.24,2.24,0,0,0-1.09.41c-.94.7-1,2.22-.87,4.09a19.74,19.74,0,0,1-3.82.26l-1.08,0c.05-2.29-.21-4-1.5-3.86A2.24,2.24,0,0,0,182.6,216.13Zm2.46,6.67,1.57-.2c1.13-.15,2.35-.24,3.6-.33a16.94,16.94,0,0,1-.27,4c-.06.31-.1.51-.16.8a20.75,20.75,0,0,1-3.92.28l-1,0c0-.33,0-.63,0-1C184.88,225.28,185,224.05,185.06,222.8Z" fill="#e47b7b"/>
                <path d="M182.6,216.13c-.81.6-.92,1.87-.88,3.38-2.38,0-3.59.38-3.6,2s1.52,1.75,3.75,1.62a16.84,16.84,0,0,1-.27,4.1v.06c-2.59,0-3.87.33-3.87,2,0,1.35,1.25,1.69,3.14,1.66-.48,2.73-.34,4,1.54,3.69,1.68-.24,2.16-1.83,2.33-4l1.49-.19c.94-.13,2-.2,3-.28-.46,2.68-.32,3.91,1.55,3.64,1.66-.25,2.15-1.8,2.33-4,2.68-.28,4.82-.77,4.85-2a1.45,1.45,0,0,0-.25-1c-.63-.81-2.32-.59-4.47-.2,0-.34,0-.65,0-1,0-1.1.09-2.32.17-3.56,2.71-.28,4.9-.74,4.94-2a1.5,1.5,0,0,0-.26-1c-.63-.82-2.35-.6-4.53-.19.05-2.32-.2-4.06-1.51-3.9a2.24,2.24,0,0,0-1.09.41c-.94.7-1,2.22-.87,4.09a19.74,19.74,0,0,1-3.82.26l-1.08,0c.05-2.29-.21-4-1.5-3.86A2.24,2.24,0,0,0,182.6,216.13Zm2.46,6.67,1.57-.2c1.13-.15,2.35-.24,3.6-.33a16.94,16.94,0,0,1-.27,4c-.06.31-.1.51-.16.8a20.75,20.75,0,0,1-3.92.28l-1,0c0-.33,0-.63,0-1C184.88,225.28,185,224.05,185.06,222.8Z" fill="#e47b7b"/>
            </g>
        </g>
    </g>
</svg>
